<svg width="24" height="24" viewBox="0 0 24 24" fill="none" xmlns="http://www.w3.org/2000/svg">
<rect width="24" height="24" rx="4" fill="#3497F9"/>
<path d="M16 11.3333C16 11.78 16 12.22 16 12.6667C16.8 12.6667 17.84 12.6667 18.6667 12.6667C18.6667 12.22 18.6667 11.78 18.6667 11.3333C17.84 11.3333 16.8 11.3333 16 11.3333Z" fill="white"/>
<path d="M14.6667 15.74C15.3067 16.2133 16.1401 16.84 16.8001 17.3333C17.0667 16.98 17.3334 16.62 17.6001 16.2667C16.9401 15.7733 16.1067 15.1467 15.4667 14.6667C15.2001 15.0267 14.9334 15.3867 14.6667 15.74Z" fill="white"/>
<path d="M17.6001 7.73333C17.3334 7.38 17.0667 7.02 16.8001 6.66667C16.1401 7.16 15.3067 7.78667 14.6667 8.26667C14.9334 8.62 15.2001 8.98 15.4667 9.33333C16.1067 8.85333 16.9401 8.23333 17.6001 7.73333Z" fill="white"/>
<path d="M6.66659 10C5.93325 10 5.33325 10.6 5.33325 11.3333V12.6667C5.33325 13.4 5.93325 14 6.66659 14H7.33325V16.6667H8.66659V14H9.33325L12.6666 16V8L9.33325 10H6.66659ZM10.0199 11.14L11.3333 10.3533V13.6467L10.0199 12.86L9.69992 12.6667H9.33325H6.66659V11.3333H9.33325H9.69992L10.0199 11.14Z" fill="white"/>
<path d="M14.3333 12C14.3333 11.1133 13.9466 10.3133 13.3333 9.76667V14.2267C13.9466 13.6867 14.3333 12.8867 14.3333 12Z" fill="white"/>
</svg>
