<svg width="24" height="24" viewBox="0 0 24 24" fill="none" xmlns="http://www.w3.org/2000/svg">
<rect width="24" height="24" rx="4" fill="#F2AB3C"/>
<path d="M18.6666 10.6667V8C18.6666 7.26 18.0666 6.66666 17.3333 6.66666H6.66659C5.93325 6.66666 5.33992 7.26 5.33992 8V10.6667C6.07325 10.6667 6.66659 11.2667 6.66659 12C6.66659 12.7333 6.07325 13.3333 5.33325 13.3333V16C5.33325 16.7333 5.93325 17.3333 6.66659 17.3333H17.3333C18.0666 17.3333 18.6666 16.7333 18.6666 16V13.3333C17.9333 13.3333 17.3333 12.7333 17.3333 12C17.3333 11.2667 17.9333 10.6667 18.6666 10.6667ZM17.3333 9.69333C16.5399 10.1533 15.9999 11.02 15.9999 12C15.9999 12.98 16.5399 13.8467 17.3333 14.3067V16H6.66659V14.3067C7.45992 13.8467 7.99992 12.98 7.99992 12C7.99992 11.0133 7.46659 10.1533 6.67325 9.69333L6.66659 8H17.3333V9.69333ZM11.3333 14H12.6666V15.3333H11.3333V14ZM11.3333 11.3333H12.6666V12.6667H11.3333V11.3333ZM11.3333 8.66666H12.6666V10H11.3333V8.66666Z" fill="white"/>
</svg>
