<svg width="24" height="24" viewBox="0 0 24 24" fill="none" xmlns="http://www.w3.org/2000/svg">
<rect width="24" height="24" rx="4" fill="#58A55C"/>
<path d="M9.88333 14.8333C9.42778 14.8333 9.04444 14.6778 8.73333 14.3667C8.42222 14.0556 8.26667 13.6722 8.26667 13.2167C8.26667 12.7611 8.42222 12.3778 8.73333 12.0667C9.04444 11.7556 9.42778 11.6 9.88333 11.6C10.3389 11.6 10.7222 11.7556 11.0333 12.0667C11.3444 12.3778 11.5 12.7611 11.5 13.2167C11.5 13.6722 11.3444 14.0556 11.0333 14.3667C10.7222 14.6778 10.3389 14.8333 9.88333 14.8333ZM7 18.6667C6.73333 18.6667 6.5 18.5667 6.3 18.3667C6.1 18.1667 6 17.9333 6 17.6667V7.33333C6 7.06667 6.1 6.83333 6.3 6.63333C6.5 6.43333 6.73333 6.33333 7 6.33333H8.08333V5.33333H9.16667V6.33333H14.8333V5.33333H15.9167V6.33333H17C17.2667 6.33333 17.5 6.43333 17.7 6.63333C17.9 6.83333 18 7.06667 18 7.33333V17.6667C18 17.9333 17.9 18.1667 17.7 18.3667C17.5 18.5667 17.2667 18.6667 17 18.6667H7ZM7 17.6667H17V10.5H7V17.6667ZM7 9.5H17V7.33333H7V9.5ZM7 9.5V7.33333V9.5Z" fill="white"/>
</svg>
