<svg width="32" height="32" viewBox="0 0 32 32" fill="none" xmlns="http://www.w3.org/2000/svg">
<g clip-path="url(#clip0_8826_31024)">
<path d="M18.0266 5.96274L20.0906 10.1334C20.2653 10.4467 20.5044 10.7195 20.7921 10.9336C21.0798 11.1478 21.4097 11.2986 21.7599 11.3761L25.4933 12.0054C27.8879 12.4054 28.4533 14.1387 26.7253 15.8827L23.8186 18.8161C23.5644 19.1037 23.3779 19.4446 23.2727 19.8138C23.1675 20.1829 23.1462 20.571 23.2106 20.9494L24.0426 24.5814C24.6986 27.4561 23.1839 28.5654 20.6613 27.0614L17.1573 24.9707C16.7981 24.7842 16.3993 24.6868 15.9946 24.6868C15.5899 24.6868 15.1911 24.7842 14.8319 24.9707L11.3226 27.0614C8.81595 28.5654 7.29061 27.4401 7.94661 24.5814L8.77861 20.9494C8.84073 20.5706 8.81794 20.1827 8.71187 19.8138C8.6058 19.4448 8.41911 19.1041 8.16528 18.8161L5.25861 15.8827C3.54661 14.1601 4.09595 12.4107 6.49061 12.0054L10.2239 11.3761C10.5742 11.2986 10.9041 11.1478 11.1918 10.9336C11.4795 10.7195 11.7186 10.4467 11.8933 10.1334L13.9573 5.9734C15.0826 3.7014 16.9119 3.7014 18.0266 5.96274Z" fill="#FFDD00" stroke="#F6D500" stroke-width="0.8" stroke-linecap="round" stroke-linejoin="round"/>
<path d="M19.2002 14.8799L18.6348 14.3465C18.5739 14.286 18.4914 14.252 18.4055 14.252C18.3196 14.252 18.2371 14.286 18.1762 14.3465V14.3465C17.9362 14.5759 17.7228 14.7839 17.6108 14.8799" stroke="black" stroke-width="0.533333" stroke-linecap="round"/>
<path d="M14.4001 14.8799L13.8347 14.3465C13.7738 14.286 13.6913 14.252 13.6054 14.252C13.5195 14.252 13.437 14.286 13.3761 14.3465C13.1361 14.5759 12.9227 14.7839 12.8107 14.8799" stroke="black" stroke-width="0.533333" stroke-linecap="round"/>
<path d="M14.1333 17.1357C14.1333 17.6308 14.33 18.1056 14.68 18.4557C15.0301 18.8057 15.5049 19.0024 16 19.0024C16.495 19.0024 16.9698 18.8057 17.3199 18.4557C17.67 18.1056 17.8666 17.6308 17.8666 17.1357H14.1333Z" fill="#FF0000" stroke="black" stroke-width="0.533333" stroke-linecap="round" stroke-linejoin="round"/>
<path d="M19.8294 16.6346C20.3566 16.6346 20.784 16.3529 20.784 16.0053C20.784 15.6577 20.3566 15.376 19.8294 15.376C19.3021 15.376 18.8747 15.6577 18.8747 16.0053C18.8747 16.3529 19.3021 16.6346 19.8294 16.6346Z" fill="#FF8383"/>
<path d="M12.1707 16.6346C12.6979 16.6346 13.1253 16.3529 13.1253 16.0053C13.1253 15.6577 12.6979 15.376 12.1707 15.376C11.6434 15.376 11.216 15.6577 11.216 16.0053C11.216 16.3529 11.6434 16.6346 12.1707 16.6346Z" fill="#FF8383"/>
</g>
<defs>
<clipPath id="clip0_8826_31024">
<rect width="32" height="32" fill="white"/>
</clipPath>
</defs>
</svg>
