<svg width="18" height="18" viewBox="0 0 18 18" fill="none" xmlns="http://www.w3.org/2000/svg">
<g clip-path="url(#clip0_8282_69585)">
<g clip-path="url(#clip1_8282_69585)">
<path d="M0.180945 5.68938H1.5872H16.413H17.8193V4.64003V4.28313V3.0341C17.8193 1.50213 16.577 0.262939 15.045 0.262939H14.4642V2.167C14.6622 2.37597 14.7857 2.65638 14.7857 2.96688C14.7857 3.61038 14.264 4.1321 13.6205 4.1321C12.977 4.1321 12.4553 3.61038 12.4553 2.96688C12.4553 2.65638 12.5787 2.37597 12.7767 2.167V0.262939H9.84385V2.167C10.0419 2.37597 10.1653 2.65638 10.1653 2.96688C10.1653 3.61038 9.6436 4.1321 9.0001 4.1321C8.3566 4.1321 7.83488 3.61038 7.83488 2.96688C7.83488 2.65638 7.95835 2.37597 8.15635 2.167V0.262939H5.2232V2.167C5.4212 2.37597 5.54466 2.65638 5.54466 2.96688C5.54466 3.61038 5.02295 4.1321 4.37945 4.1321C3.73595 4.1321 3.21423 3.61038 3.21423 2.96688C3.21423 2.65638 3.3377 2.37597 3.5357 2.167V0.262939H2.95491C1.42295 0.262939 0.180664 1.50213 0.180664 3.0341V4.64003V5.68938H0.180945Z" fill="#414141"/>
<path d="M3.908 16.2968H2.99168C2.2174 16.2968 1.5874 15.6668 1.5874 14.8925V7.0957H0.181152V14.8925C0.181152 16.4422 1.442 17.703 2.99168 17.703H5.14184C4.65753 17.2992 4.24043 16.8272 3.908 16.2968Z" fill="#414141"/>
<path d="M16.4128 7.0957V14.8925C16.4128 15.6668 15.7828 16.2968 15.0086 16.2968H14.0891C13.7514 16.8331 13.3348 17.3056 12.8584 17.703H15.0086C16.5582 17.703 17.8191 16.4422 17.8191 14.8925V7.0957H16.4128Z" fill="#414141"/>
<path d="M9 17.7369C6.44119 17.7369 4.35938 15.6551 4.35938 13.0963C4.35938 10.5375 6.44119 8.45569 9 8.45569C11.5588 8.45569 13.6406 10.5375 13.6406 13.0963C13.6406 15.6551 11.5588 17.7369 9 17.7369ZM9 9.86222C7.21659 9.86222 5.76562 11.3129 5.76562 13.0963C5.76562 14.8797 7.21659 16.3307 9 16.3307C10.7834 16.3307 12.2344 14.8797 12.2344 13.0963C12.2344 11.3129 10.7834 9.86222 9 9.86222Z" fill="#414141"/>
<path d="M8.59832 14.7136C8.41186 14.7136 8.23298 14.6393 8.10107 14.5077L7.07648 13.4828C6.80198 13.208 6.80198 12.7628 7.07648 12.4886C7.35126 12.2138 7.7962 12.2138 8.07098 12.4886L8.59832 13.0159L9.9292 11.6853C10.204 11.4106 10.6489 11.4106 10.9234 11.6853C11.1979 11.9601 11.1982 12.4051 10.9234 12.6796L9.09529 14.5077C8.96367 14.6393 8.78479 14.7136 8.59832 14.7136Z" fill="#414141"/>
</g>
</g>
<defs>
<clipPath id="clip0_8282_69585">
<rect width="18" height="18" fill="white"/>
</clipPath>
<clipPath id="clip1_8282_69585">
<rect width="18" height="18" fill="white"/>
</clipPath>
</defs>
</svg>
