<svg width="42" height="42" viewBox="0 0 42 42" fill="none" xmlns="http://www.w3.org/2000/svg">
<circle cx="21" cy="21" r="20.5" stroke="url(#paint0_linear_9072_31689)"/>
<path d="M27.0525 18.3664H26.3872L26.387 14.3246C26.387 11.3883 23.9989 9 21.0633 9C18.127 9 15.7387 11.3885 15.7387 14.3246V18.3664H15.0734C13.9284 18.3664 13 19.2944 13 20.4398V30.0578C13 31.2028 13.9282 32.1313 15.0734 32.1313H27.0527C28.1977 32.1313 29.1264 31.203 29.1264 30.0578V20.4398C29.1264 19.2946 28.1977 18.3666 27.0527 18.3666L27.0525 18.3664ZM17.6019 14.3246C17.6019 12.4157 19.1549 10.8627 21.0637 10.8627C22.9719 10.8627 24.5245 12.4158 24.5245 14.3246V18.3664H17.6021L17.6019 14.3246ZM22.1243 25.1435V27.7321C22.1243 28.3179 21.6496 28.7927 21.0633 28.7927C20.4775 28.7927 20.0027 28.3179 20.0027 27.7321V25.1435C19.5059 24.8046 19.18 24.2339 19.18 23.5875C19.18 22.5468 20.0233 21.7035 21.0633 21.7035C22.1035 21.7035 22.9466 22.5471 22.9466 23.5875C22.9466 24.2337 22.6206 24.8039 22.1243 25.1435Z" fill="#00439D"/>
<defs>
<linearGradient id="paint0_linear_9072_31689" x1="21" y1="0" x2="21" y2="42" gradientUnits="userSpaceOnUse">
<stop stop-color="#FF0000"/>
<stop offset="1" stop-color="#FFBF84"/>
</linearGradient>
</defs>
</svg>
