<svg width="52" height="52" viewBox="0 0 52 52" fill="none" xmlns="http://www.w3.org/2000/svg">
<g clip-path="url(#clip0_1959_66365)">
<rect width="75" height="24" transform="translate(16.9705 -17) rotate(45)" fill="url(#paint0_linear_1959_66365)"/>
<path d="M34.4784 10.7931L28.3073 16.9642L27.3129 15.9698L28.6086 8.8586L28.5574 8.80738L24.3539 13.0108L23.236 11.8929L29.4071 5.72182L30.4075 6.72222L29.1058 13.8335L29.1601 13.8877L33.3665 9.68122L34.4784 10.7931ZM31.4358 20.2735C30.9718 19.8095 30.6674 19.3123 30.5228 18.782C30.3822 18.2516 30.3993 17.7183 30.574 17.1819C30.7508 16.6436 31.0813 16.1323 31.5654 15.6482C32.0415 15.1721 32.5497 14.8447 33.0901 14.6659C33.6345 14.4871 34.1708 14.461 34.6992 14.5875C35.2295 14.7121 35.7156 14.9953 36.1576 15.4373C36.4428 15.7225 36.6658 16.0379 36.8265 16.3834C36.9912 16.7289 37.0756 17.0945 37.0796 17.4802C37.0856 17.8679 36.9972 18.2657 36.8144 18.6735C36.6336 19.0793 36.3404 19.485 35.9346 19.8908L35.6001 20.2253L31.8064 16.4316L32.5417 15.6964L35.2897 18.4445C35.4967 18.2335 35.6373 18.0025 35.7116 17.7514C35.7879 17.4983 35.794 17.2452 35.7297 16.9921C35.6674 16.741 35.5318 16.511 35.3229 16.3021C35.0999 16.0791 34.8498 15.9375 34.5726 15.8772C34.2974 15.8149 34.0252 15.824 33.756 15.9043C33.4908 15.9847 33.2538 16.1273 33.0449 16.3322L32.4031 16.974C32.1339 17.2432 31.9521 17.5234 31.8577 17.8147C31.7653 18.104 31.7562 18.3882 31.8305 18.6674C31.9069 18.9447 32.0636 19.2018 32.3006 19.4388C32.4593 19.5975 32.625 19.7191 32.7978 19.8034C32.9726 19.8858 33.1513 19.93 33.3342 19.936C33.517 19.942 33.6978 19.9039 33.8765 19.8215L34.7805 20.9545C34.447 21.1594 34.0895 21.2719 33.7078 21.292C33.3301 21.3121 32.9464 21.2377 32.5567 21.069C32.169 20.8983 31.7954 20.6331 31.4358 20.2735ZM35.4374 24.0943L38.758 18.1582L39.8699 19.2701L37.4291 23.338L37.4713 23.3802L41.5573 20.9575L42.6571 22.0573L40.2525 26.1252L40.2977 26.1704L44.3355 23.7357L45.4504 24.8506L39.5113 28.1682L38.3753 27.0322L40.6352 23.0366L40.572 22.9734L36.5764 25.2333L35.4374 24.0943Z" fill="white"/>
</g>
<defs>
<linearGradient id="paint0_linear_1959_66365" x1="38.5582" y1="-13.8095" x2="38.5582" y2="39.2235" gradientUnits="userSpaceOnUse">
<stop stop-color="#ED2F05"/>
<stop offset="1" stop-color="#B62404"/>
</linearGradient>
<clipPath id="clip0_1959_66365">
<rect width="52" height="52" fill="white"/>
</clipPath>
</defs>
</svg>
