<svg width="16" height="16" viewBox="0 0 16 16" fill="none" xmlns="http://www.w3.org/2000/svg">
<g clip-path="url(#clip0_7801_112704)">
<path d="M6.59375 8.93738C6.59375 9.71277 7.22461 10.3436 8 10.3436C8.77539 10.3436 9.40625 9.71277 9.40625 8.93738C9.40625 8.16199 8.77539 7.53113 8 7.53113C7.22461 7.53113 6.59375 8.16199 6.59375 8.93738Z" fill="#414141"/>
<path d="M8 11.2814C6.4491 11.2814 5.1875 12.543 5.1875 14.0939V16.0001H10.8125V14.0939C10.8125 12.543 9.5509 11.2814 8 11.2814Z" fill="#414141"/>
<path d="M4.25 9.87512C4.25 9.09973 3.61914 8.46887 2.84375 8.46887C2.06836 8.46887 1.4375 9.09973 1.4375 9.87512C1.4375 10.6505 2.06836 11.2814 2.84375 11.2814C3.61914 11.2814 4.25 10.6505 4.25 9.87512Z" fill="#414141"/>
<path d="M14.5625 9.87512C14.5625 9.09973 13.9316 8.46887 13.1562 8.46887C12.3809 8.46887 11.75 9.09973 11.75 9.87512C11.75 10.6505 12.3809 11.2814 13.1562 11.2814C13.9316 11.2814 14.5625 10.6505 14.5625 9.87512Z" fill="#414141"/>
<path d="M2.375 0L1.66187 1.68127L0 1.91565L1.19861 3.0542L0.922974 4.71875L2.375 3.95984L3.82703 4.71875L3.55139 3.0542L4.71875 1.91565L3.10559 1.68127L2.375 0Z" fill="#FFB133"/>
<path d="M8.73059 1.68127L8 0L7.28687 1.68127L5.65625 1.91565L6.82361 3.0542L6.54797 4.71875L8 3.95984L9.45203 4.71875L9.17639 3.0542L10.3438 1.91565L8.73059 1.68127Z" fill="#FFB133"/>
<path d="M13.625 0L12.9119 1.68127L11.2812 1.91565L12.4486 3.0542L12.173 4.71875L13.625 3.95984L15.077 4.71875L14.8014 3.0542L16 1.91565L14.3556 1.68127L13.625 0Z" fill="#FFB133"/>
<path d="M13.1564 12.2189C12.5333 12.2189 11.9631 12.428 11.4971 12.7708C11.6539 13.1837 11.7501 13.6266 11.7501 14.0939V16.0001H16.0001V15.0314C16.0001 13.478 14.7097 12.2189 13.1564 12.2189Z" fill="#414141"/>
<path d="M0 15.0314V16.0001H4.25V14.0939C4.25 13.6266 4.34619 13.1837 4.50305 12.7708C4.03699 12.428 3.4668 12.2189 2.84375 12.2189C1.29041 12.2189 0 13.478 0 15.0314Z" fill="#414141"/>
</g>
<defs>
<clipPath id="clip0_7801_112704">
<rect width="16" height="16" fill="white"/>
</clipPath>
</defs>
</svg>
